<svg version="1.1" id="Layer_1" xmlns="http://www.w3.org/2000/svg" xmlns:xlink="http://www.w3.org/1999/xlink" x="0px" y="0px"
	 width="100%" viewBox="0 0 4096 2048" enable-background="new 0 0 4096 2048" xml:space="preserve">
<path fill="#FFFFFF" opacity="1.000000" stroke="none" 
	d="
M2458.000000,2050.000000 
	C1638.666870,2050.000000 820.333618,2050.000000 2.000329,2050.000000 
	C2.000220,1367.333618 2.000220,684.667175 2.000110,2.000604 
	C1367.332886,2.000403 2732.665771,2.000403 4097.999023,2.000201 
	C4097.999023,684.666016 4097.999023,1367.332031 4097.999512,2049.999023 
	C3551.666748,2050.000000 3005.333252,2050.000000 2458.000000,2050.000000 
M1904.999634,1446.625488 
	C1937.674194,1446.625488 1970.349365,1446.707031 2003.022827,1446.518066 
	C2006.939819,1446.495483 2011.783569,1448.764893 2014.564087,1443.364502 
	C2017.271606,1438.105835 2012.852051,1435.270752 2010.761353,1431.935425 
	C1921.098999,1288.889038 1831.323364,1145.913452 1741.574585,1002.921143 
	C1740.201782,1000.734009 1738.990112,998.445801 1737.744019,996.275574 
	C1739.606567,993.229858 1741.143677,990.669128 1742.725708,988.136353 
	C1818.753540,866.412292 1894.785400,744.690613 1970.815674,622.968079 
	C1972.050537,620.991150 1973.308105,619.027161 1974.493408,617.020569 
	C1979.141846,609.150818 1977.112671,605.749451 1967.670776,605.552368 
	C1966.671265,605.531494 1965.670898,605.549500 1964.671021,605.549500 
	C1893.676147,605.549500 1822.681274,605.549500 1751.686401,605.549500 
	C1748.698608,605.549500 1745.710815,605.549500 1742.243286,605.549500 
	C1698.558350,678.417969 1654.925293,751.199646 1610.536255,825.242615 
	C1567.938232,751.539917 1525.853027,678.724487 1483.761841,605.898743 
	C1481.435669,605.769470 1479.461060,605.563965 1477.486450,605.563660 
	C1381.826660,605.547852 1286.166992,605.549683 1190.507202,605.550171 
	C1189.173950,605.550171 1187.825806,605.431335 1186.510254,605.585876 
	C1181.400879,606.186218 1179.186035,610.093140 1181.565063,614.605835 
	C1183.113281,617.542542 1185.071411,620.264648 1186.869385,623.067871 
	C1267.236084,748.365723 1347.607910,873.660339 1427.963379,998.965393 
	C1430.604858,1003.084656 1433.083008,1007.308655 1435.634399,1011.479126 
	C1347.841431,1152.535767 1260.380127,1293.059692 1172.194580,1434.747070 
	C1079.846558,1287.673462 988.525757,1142.235962 897.168030,996.739502 
	C898.776611,993.999634 900.059448,991.690308 901.456665,989.452332 
	C956.475281,901.324524 1011.499390,813.200134 1066.534424,725.082581 
	C1088.936890,689.213684 1111.406982,653.386963 1133.751831,617.482178 
	C1138.714355,609.507996 1136.675537,605.817139 1127.578491,605.554016 
	C1126.579468,605.525085 1125.578735,605.549561 1124.578857,605.549561 
	C1053.250732,605.549561 981.922485,605.549561 910.594299,605.549622 
	C907.652283,605.549622 904.710266,605.549683 901.800293,605.549683 
	C857.884949,678.771606 814.339172,751.377319 770.051025,825.220764 
	C727.239807,751.131592 685.313354,678.573608 643.117554,605.549500 
	C639.489563,605.549500 635.848633,605.549500 632.207642,605.549500 
	C539.214355,605.549500 446.221069,605.518005 353.227997,605.651062 
	C348.983643,605.657104 343.670441,603.220337 340.781738,608.984497 
	C338.177460,614.181152 342.662537,617.068115 344.814087,620.427856 
	C426.707275,748.307434 508.709076,876.117493 590.675659,1003.950012 
	C592.242554,1006.393799 593.561218,1008.996704 594.984009,1011.504639 
	C592.464539,1015.661682 590.265259,1019.376282 587.984985,1023.040527 
	C503.008301,1159.589966 418.024017,1296.134521 333.041473,1432.680054 
	C331.986481,1434.375122 330.765106,1435.992676 329.920837,1437.787231 
	C327.921204,1442.037476 329.823395,1445.789185 334.401978,1446.532471 
	C336.352539,1446.849121 338.393127,1446.623657 340.392792,1446.623657 
	C413.720825,1446.625854 487.048859,1446.630493 560.376892,1446.606934 
	C563.317200,1446.605957 566.257385,1446.333862 568.925415,1446.201538 
	C619.686890,1360.493896 670.106995,1275.362793 721.159912,1189.162964 
	C772.071167,1275.813232 822.141296,1361.031982 872.187744,1446.210449 
	C1051.515381,1446.210449 1230.424805,1446.210449 1409.372559,1446.210449 
	C1459.966675,1360.786865 1510.389526,1275.652466 1561.612061,1189.167847 
	C1612.591064,1275.929077 1662.633423,1361.096313 1712.888306,1446.625488 
	C1776.395020,1446.625488 1839.697266,1446.625488 1904.999634,1446.625488 
M2992.822266,605.549866 
	C2884.894043,605.549866 2776.966064,605.549866 2668.579346,605.549866 
	C2631.370850,748.251648 2594.329346,890.313354 2557.287842,1032.375122 
	C2556.708740,1032.459717 2556.129639,1032.544434 2555.550537,1032.629150 
	C2516.701416,890.417297 2477.852051,748.205505 2438.881592,605.549866 
	C2435.309326,605.549866 2432.344238,605.549866 2429.379150,605.549866 
	C2323.062744,605.549866 2216.746094,605.549866 2110.429688,605.549988 
	C2109.096680,605.549988 2107.760498,605.494568 2106.430908,605.561584 
	C2099.328369,605.919556 2097.970703,607.320862 2097.675049,614.617920 
	C2097.607666,616.281616 2097.664307,617.950378 2097.664307,619.616760 
	C2097.664062,890.573792 2097.663818,1161.530884 2097.664551,1432.487915 
	C2097.664551,1434.820801 2097.653076,1437.154053 2097.683350,1439.486694 
	C2097.740234,1443.883301 2100.016113,1446.264648 2104.364746,1446.572632 
	C2106.354980,1446.713623 2108.362549,1446.623657 2110.362061,1446.623657 
	C2168.352783,1446.625244 2226.343750,1446.630127 2284.334473,1446.620972 
	C2297.329346,1446.618896 2297.723145,1446.198975 2297.745361,1433.092285 
	C2297.748535,1431.092651 2297.745850,1429.092896 2297.745850,1427.093262 
	C2297.745850,1250.787842 2297.745850,1074.482544 2297.745850,898.177185 
	C2297.745850,894.156616 2297.745605,890.136108 2297.745605,886.115540 
	C2298.350830,886.089294 2298.955811,886.062988 2299.561035,886.036743 
	C2349.702881,1072.794678 2399.844727,1259.552490 2449.946289,1446.159668 
	C2506.867432,1446.159668 2562.757324,1446.159668 2619.114502,1446.159668 
	C2667.558350,1259.319580 2715.919434,1072.800049 2764.280273,886.280457 
	C2764.861816,886.362183 2765.443359,886.443970 2766.024902,886.525757 
	C2766.024902,890.381348 2766.024658,894.236877 2766.024658,898.092468 
	C2766.024414,987.411621 2766.024414,1076.730713 2766.024170,1166.049927 
	C2766.024170,1255.702393 2766.016113,1345.354858 2766.034180,1435.007324 
	C2766.036377,1445.802856 2766.768799,1446.603149 2777.148926,1446.607422 
	C2851.803711,1446.638428 2926.458740,1446.642944 3001.113525,1446.600586 
	C3010.272949,1446.595459 3011.628418,1445.155884 3011.837646,1436.359375 
	C3011.885010,1434.360840 3011.844482,1432.360107 3011.844482,1430.360474 
	C3011.844482,1161.069824 3011.818359,891.779236 3011.906982,622.488586 
	C3011.912598,605.333923 3011.507080,605.151917 2992.822266,605.549866 
M3601.000000,1234.156250 
	C3549.768799,1234.156250 3498.537598,1234.156250 3446.335205,1234.156250 
	C3446.335205,1229.696045 3446.335449,1226.111816 3446.335449,1222.527466 
	C3446.335449,1158.877319 3446.335449,1095.227295 3446.335449,1031.577148 
	C3446.335449,893.613037 3446.339355,755.648926 3446.327637,617.684814 
	C3446.326660,606.583679 3445.514404,605.578064 3435.638428,605.573242 
	C3354.659424,605.533936 3273.680664,605.534668 3192.701660,605.574646 
	C3183.515381,605.579163 3182.345459,606.866882 3182.161133,615.880859 
	C3182.126953,617.546387 3182.156006,619.213196 3182.156006,620.879456 
	C3182.156006,891.142456 3182.156006,1161.405518 3182.156006,1431.668457 
	C3182.156006,1434.001221 3182.041016,1436.341187 3182.184082,1438.665161 
	C3182.558350,1444.738403 3183.968018,1446.167725 3189.958252,1446.591797 
	C3191.947998,1446.732788 3193.955811,1446.623535 3195.955322,1446.623535 
	C3384.239746,1446.624023 3572.523926,1446.623901 3760.808350,1446.623535 
	C3762.807861,1446.623535 3764.817383,1446.747681 3766.804688,1446.590088 
	C3772.692871,1446.123413 3774.051758,1444.656494 3774.430420,1438.490112 
	C3774.532227,1436.830078 3774.448975,1435.158569 3774.448975,1433.492310 
	C3774.449219,1371.508423 3774.449463,1309.524658 3774.447266,1247.540771 
	C3774.447266,1245.208252 3774.564941,1242.863281 3774.368896,1240.546021 
	C3774.042480,1236.692017 3771.806152,1234.485229 3767.954590,1234.213745 
	C3765.301270,1234.026611 3762.625244,1234.157349 3759.959229,1234.157227 
	C3707.639404,1234.155884 3655.319824,1234.156250 3601.000000,1234.156250 
M3836.809082,569.762268 
	C3837.945312,572.527649 3838.927002,575.368958 3840.241455,578.046936 
	C3855.815186,609.777527 3894.027100,623.202087 3925.998779,608.219666 
	C3958.373779,593.048279 3972.466309,554.346375 3957.351807,522.117249 
	C3942.318604,490.061462 3904.404053,475.831360 3872.194336,490.182800 
	C3844.853027,502.364899 3826.585205,533.414185 3836.809082,569.762268 
z"/>
<path fill="#010101" opacity="1.000000" stroke="none" 
	d="
M1903.999512,1446.625488 
	C1839.697266,1446.625488 1776.395020,1446.625488 1712.888306,1446.625488 
	C1662.633423,1361.096313 1612.591064,1275.929077 1561.612061,1189.167847 
	C1510.389526,1275.652466 1459.966675,1360.786865 1409.372559,1446.210449 
	C1230.424805,1446.210449 1051.515381,1446.210449 872.187744,1446.210449 
	C822.141296,1361.031982 772.071167,1275.813232 721.159912,1189.162964 
	C670.106995,1275.362793 619.686890,1360.493896 568.925415,1446.201538 
	C566.257385,1446.333862 563.317200,1446.605957 560.376892,1446.606934 
	C487.048859,1446.630493 413.720825,1446.625854 340.392792,1446.623657 
	C338.393127,1446.623657 336.352539,1446.849121 334.401978,1446.532471 
	C329.823395,1445.789185 327.921204,1442.037476 329.920837,1437.787231 
	C330.765106,1435.992676 331.986481,1434.375122 333.041473,1432.680054 
	C418.024017,1296.134521 503.008301,1159.589966 587.984985,1023.040527 
	C590.265259,1019.376282 592.464539,1015.661682 594.984009,1011.504639 
	C593.561218,1008.996704 592.242554,1006.393799 590.675659,1003.950012 
	C508.709076,876.117493 426.707275,748.307434 344.814087,620.427856 
	C342.662537,617.068115 338.177460,614.181152 340.781738,608.984497 
	C343.670441,603.220337 348.983643,605.657104 353.227997,605.651062 
	C446.221069,605.518005 539.214355,605.549500 632.207642,605.549500 
	C635.848633,605.549500 639.489563,605.549500 643.117554,605.549500 
	C685.313354,678.573608 727.239807,751.131592 770.051025,825.220764 
	C814.339172,751.377319 857.884949,678.771606 901.800293,605.549683 
	C904.710266,605.549683 907.652283,605.549622 910.594299,605.549622 
	C981.922485,605.549561 1053.250732,605.549561 1124.578857,605.549561 
	C1125.578735,605.549561 1126.579468,605.525085 1127.578491,605.554016 
	C1136.675537,605.817139 1138.714355,609.507996 1133.751831,617.482178 
	C1111.406982,653.386963 1088.936890,689.213684 1066.534424,725.082581 
	C1011.499390,813.200134 956.475281,901.324524 901.456665,989.452332 
	C900.059448,991.690308 898.776611,993.999634 897.168030,996.739502 
	C988.525757,1142.235962 1079.846558,1287.673462 1172.194580,1434.747070 
	C1260.380127,1293.059692 1347.841431,1152.535767 1435.634399,1011.479126 
	C1433.083008,1007.308655 1430.604858,1003.084656 1427.963379,998.965393 
	C1347.607910,873.660339 1267.236084,748.365723 1186.869385,623.067871 
	C1185.071411,620.264648 1183.113281,617.542542 1181.565063,614.605835 
	C1179.186035,610.093140 1181.400879,606.186218 1186.510254,605.585876 
	C1187.825806,605.431335 1189.173950,605.550171 1190.507202,605.550171 
	C1286.166992,605.549683 1381.826660,605.547852 1477.486450,605.563660 
	C1479.461060,605.563965 1481.435669,605.769470 1483.761841,605.898743 
	C1525.853027,678.724487 1567.938232,751.539917 1610.536255,825.242615 
	C1654.925293,751.199646 1698.558350,678.417969 1742.243286,605.549500 
	C1745.710815,605.549500 1748.698608,605.549500 1751.686401,605.549500 
	C1822.681274,605.549500 1893.676147,605.549500 1964.671021,605.549500 
	C1965.670898,605.549500 1966.671265,605.531494 1967.670776,605.552368 
	C1977.112671,605.749451 1979.141846,609.150818 1974.493408,617.020569 
	C1973.308105,619.027161 1972.050537,620.991150 1970.815674,622.968079 
	C1894.785400,744.690613 1818.753540,866.412292 1742.725708,988.136353 
	C1741.143677,990.669128 1739.606567,993.229858 1737.744019,996.275574 
	C1738.990112,998.445801 1740.201782,1000.734009 1741.574585,1002.921143 
	C1831.323364,1145.913452 1921.098999,1288.889038 2010.761353,1431.935425 
	C2012.852051,1435.270752 2017.271606,1438.105835 2014.564087,1443.364502 
	C2011.783569,1448.764893 2006.939819,1446.495483 2003.022827,1446.518066 
	C1970.349365,1446.707031 1937.674194,1446.625488 1903.999512,1446.625488 
z"/>
<path fill="#010101" opacity="1.000000" stroke="none" 
	d="
M2993.789551,605.549866 
	C3011.507080,605.151917 3011.912598,605.333923 3011.906982,622.488586 
	C3011.818359,891.779236 3011.844482,1161.069824 3011.844482,1430.360474 
	C3011.844482,1432.360107 3011.885010,1434.360840 3011.837646,1436.359375 
	C3011.628418,1445.155884 3010.272949,1446.595459 3001.113525,1446.600586 
	C2926.458740,1446.642944 2851.803711,1446.638428 2777.148926,1446.607422 
	C2766.768799,1446.603149 2766.036377,1445.802856 2766.034180,1435.007324 
	C2766.016113,1345.354858 2766.024170,1255.702393 2766.024170,1166.049927 
	C2766.024414,1076.730713 2766.024414,987.411621 2766.024658,898.092468 
	C2766.024658,894.236877 2766.024902,890.381348 2766.024902,886.525757 
	C2765.443359,886.443970 2764.861816,886.362183 2764.280273,886.280457 
	C2715.919434,1072.800049 2667.558350,1259.319580 2619.114502,1446.159668 
	C2562.757324,1446.159668 2506.867432,1446.159668 2449.946289,1446.159668 
	C2399.844727,1259.552490 2349.702881,1072.794678 2299.561035,886.036743 
	C2298.955811,886.062988 2298.350830,886.089294 2297.745605,886.115540 
	C2297.745605,890.136108 2297.745850,894.156616 2297.745850,898.177185 
	C2297.745850,1074.482544 2297.745850,1250.787842 2297.745850,1427.093262 
	C2297.745850,1429.092896 2297.748535,1431.092651 2297.745361,1433.092285 
	C2297.723145,1446.198975 2297.329346,1446.618896 2284.334473,1446.620972 
	C2226.343750,1446.630127 2168.352783,1446.625244 2110.362061,1446.623657 
	C2108.362549,1446.623657 2106.354980,1446.713623 2104.364746,1446.572632 
	C2100.016113,1446.264648 2097.740234,1443.883301 2097.683350,1439.486694 
	C2097.653076,1437.154053 2097.664551,1434.820801 2097.664551,1432.487915 
	C2097.663818,1161.530884 2097.664062,890.573792 2097.664307,619.616760 
	C2097.664307,617.950378 2097.607666,616.281616 2097.675049,614.617920 
	C2097.970703,607.320862 2099.328369,605.919556 2106.430908,605.561584 
	C2107.760498,605.494568 2109.096680,605.549988 2110.429688,605.549988 
	C2216.746094,605.549866 2323.062744,605.549866 2429.379150,605.549866 
	C2432.344238,605.549866 2435.309326,605.549866 2438.881592,605.549866 
	C2477.852051,748.205505 2516.701416,890.417297 2555.550537,1032.629150 
	C2556.129639,1032.544434 2556.708740,1032.459717 2557.287842,1032.375122 
	C2594.329346,890.313354 2631.370850,748.251648 2668.579346,605.549866 
	C2776.966064,605.549866 2884.894043,605.549866 2993.789551,605.549866 
z"/>
<path fill="#000000" opacity="1.000000" stroke="none" 
	d="
M3602.000000,1234.156250 
	C3655.319824,1234.156250 3707.639404,1234.155884 3759.959229,1234.157227 
	C3762.625244,1234.157349 3765.301270,1234.026611 3767.954590,1234.213745 
	C3771.806152,1234.485229 3774.042480,1236.692017 3774.368896,1240.546021 
	C3774.564941,1242.863281 3774.447266,1245.208252 3774.447266,1247.540771 
	C3774.449463,1309.524658 3774.449219,1371.508423 3774.448975,1433.492310 
	C3774.448975,1435.158569 3774.532227,1436.830078 3774.430420,1438.490112 
	C3774.051758,1444.656494 3772.692871,1446.123413 3766.804688,1446.590088 
	C3764.817383,1446.747681 3762.807861,1446.623535 3760.808350,1446.623535 
	C3572.523926,1446.623901 3384.239746,1446.624023 3195.955322,1446.623535 
	C3193.955811,1446.623535 3191.947998,1446.732788 3189.958252,1446.591797 
	C3183.968018,1446.167725 3182.558350,1444.738403 3182.184082,1438.665161 
	C3182.041016,1436.341187 3182.156006,1434.001221 3182.156006,1431.668457 
	C3182.156006,1161.405518 3182.156006,891.142456 3182.156006,620.879456 
	C3182.156006,619.213196 3182.126953,617.546387 3182.161133,615.880859 
	C3182.345459,606.866882 3183.515381,605.579163 3192.701660,605.574646 
	C3273.680664,605.534668 3354.659424,605.533936 3435.638428,605.573242 
	C3445.514404,605.578064 3446.326660,606.583679 3446.327637,617.684814 
	C3446.339355,755.648926 3446.335449,893.613037 3446.335449,1031.577148 
	C3446.335449,1095.227295 3446.335449,1158.877319 3446.335449,1222.527466 
	C3446.335449,1226.111816 3446.335205,1229.696045 3446.335205,1234.156250 
	C3498.537598,1234.156250 3549.768799,1234.156250 3602.000000,1234.156250 
z"/>
<path fill="#0C0C0C" opacity="1.000000" stroke="none" 
	d="
M3836.546387,568.989258 
	C3826.585205,533.414185 3844.853027,502.364899 3872.194336,490.182800 
	C3904.404053,475.831360 3942.318604,490.061462 3957.351807,522.117249 
	C3972.466309,554.346375 3958.373779,593.048279 3925.998779,608.219666 
	C3894.027100,623.202087 3855.815186,609.777527 3840.241455,578.046936 
	C3838.927002,575.368958 3837.945312,572.527649 3836.546387,568.989258 
M3848.741943,534.302856 
	C3846.083496,543.418274 3845.734375,552.531860 3847.981689,561.848633 
	C3854.722900,589.797119 3883.691895,607.066895 3911.893799,599.771118 
	C3939.345459,592.669434 3956.209717,563.375122 3948.586670,536.034119 
	C3942.588867,514.523987 3923.926025,498.985809 3902.662109,497.799622 
	C3877.891846,496.417786 3858.729980,509.021912 3848.741943,534.302856 
z"/>
<path fill="#F7F7F7" opacity="1.000000" stroke="none" 
	d="
M3849.063477,533.573059 
	C3858.729980,509.021912 3877.891846,496.417786 3902.662109,497.799622 
	C3923.926025,498.985809 3942.588867,514.523987 3948.586670,536.034119 
	C3956.209717,563.375122 3939.345459,592.669434 3911.893799,599.771118 
	C3883.691895,607.066895 3854.722900,589.797119 3847.981689,561.848633 
	C3845.734375,552.531860 3846.083496,543.418274 3849.063477,533.573059 
M3922.244873,529.596008 
	C3921.452881,522.002319 3917.028076,517.535278 3909.857178,515.808289 
	C3896.821777,512.668884 3883.716064,514.530823 3870.719238,514.201416 
	C3870.719238,537.450134 3870.719238,559.276672 3870.719238,581.459839 
	C3876.401611,581.459839 3881.544922,581.459839 3887.717529,581.459839 
	C3887.717529,572.852295 3887.717529,564.688904 3887.717529,556.800903 
	C3896.593262,554.707642 3901.382324,558.337463 3904.598633,565.155701 
	C3907.257324,570.791382 3910.175049,576.304810 3912.665039,581.250732 
	C3918.967773,581.250732 3924.347168,581.250732 3930.576172,581.250732 
	C3924.786621,569.847595 3921.490479,558.271179 3911.238281,549.811523 
	C3919.250244,545.881775 3923.161133,539.838745 3922.244873,529.596008 
z"/>
<path fill="#0B0B0B" opacity="1.000000" stroke="none" 
	d="
M3922.299072,530.423279 
	C3923.161133,539.838745 3919.250244,545.881775 3911.238281,549.811523 
	C3921.490479,558.271179 3924.786621,569.847595 3930.576172,581.250732 
	C3924.347168,581.250732 3918.967773,581.250732 3912.665039,581.250732 
	C3910.175049,576.304810 3907.257324,570.791382 3904.598633,565.155701 
	C3901.382324,558.337463 3896.593262,554.707642 3887.717529,556.800903 
	C3887.717529,564.688904 3887.717529,572.852295 3887.717529,581.459839 
	C3881.544922,581.459839 3876.401611,581.459839 3870.719238,581.459839 
	C3870.719238,559.276672 3870.719238,537.450134 3870.719238,514.201416 
	C3883.716064,514.530823 3896.821777,512.668884 3909.857178,515.808289 
	C3917.028076,517.535278 3921.452881,522.002319 3922.299072,530.423279 
M3894.316406,526.382446 
	C3892.431641,526.382446 3890.547119,526.382446 3888.321289,526.382446 
	C3888.321289,532.799072 3888.321289,538.448364 3888.321289,544.162170 
	C3891.980957,544.162170 3894.939453,544.292847 3897.882080,544.130737 
	C3902.055420,543.900879 3904.548340,541.411255 3905.274902,537.464844 
	C3906.046387,533.273376 3905.082275,529.553772 3900.733154,527.673462 
	C3899.253418,527.033508 3897.581299,526.838013 3894.316406,526.382446 
z"/>
<path fill="#F0F0F0" opacity="1.000000" stroke="none" 
	d="
M3895.156738,526.410950 
	C3897.581299,526.838013 3899.253418,527.033508 3900.733154,527.673462 
	C3905.082275,529.553772 3906.046387,533.273376 3905.274902,537.464844 
	C3904.548340,541.411255 3902.055420,543.900879 3897.882080,544.130737 
	C3894.939453,544.292847 3891.980957,544.162170 3888.321289,544.162170 
	C3888.321289,538.448364 3888.321289,532.799072 3888.321289,526.382446 
	C3890.547119,526.382446 3892.431641,526.382446 3895.156738,526.410950 
z"/>
</svg>